#!OML:ASF H:\Terrain\Patient Classification 1\Takeo\Monday\TakeoMonday.ASF
:FULLY-SPECIFIED
:DEGREES
220
root 9.82743 17.3903 11.9965 -4.04416 1.67876 -3.70553
lowerback 8.36512 -1.46304 4.53618
upperback 1.65512 -1.47292 2.13505
thorax -3.03087 -0.763775 -0.176722
lowerneck -15.3428 1.66632 -1.66014
upperneck 1.78011 2.74333 -3.56688
head 3.33073 1.17259 -0.679819
rclavicle -1.75924e-014 -1.23246e-014
rhumerus -34.846 -2.82677 -86.2574
rradius 28.2276
rwrist -14.5027
rhand -30.5666 19.7836
rfingers 7.12502
rthumb -3.86466 -10.1611
lclavicle -1.75924e-014 -1.23246e-014
lhumerus -41.9023 1.72566 88.207
lradius 48.1288
lwrist 25.4291
lhand -21.8661 22.2374
lfingers 7.12502
lthumb 4.53808 52.1688
rfemur -8.13467 5.92454 30.2929
rtibia 34.9445
rfoot -21.199 -8.6465
rtoes -1.41565
lfemur -16.3971 0.983984 -16.6977
ltibia 73.3806
lfoot -4.10489 11.8797
ltoes -9.59414
221
root 9.82261 17.3753 12.2083 -4.09603 1.07278 -3.92632
lowerback 8.5851 -1.30734 4.75743
upperback 1.70456 -1.23557 2.09432
thorax -3.09832 -0.648523 -0.364814
lowerneck -15.3661 1.69257 -1.55361
upperneck 1.90986 2.75258 -3.38848
head 3.37946 1.18399 -0.638364
rclavicle -5.71506e-016 5.56597e-015
rhumerus -33.934 -1.33731 -87.0172
rradius 30.2784
rwrist -15.5346
rhand -31.1991 19.5406
rfingers 7.12502
rthumb -4.47536 -10.3922
lclavicle -5.71506e-016 5.56597e-015
lhumerus -42.5027 2.12831 87.6298
lradius 46.6338
lwrist 25.6184
lhand -22.2579 22.331
lfingers 7.12502
lthumb 4.15969 52.2702
rfemur -7.02346 5.90425 30.7012
rtibia 34.7461
rfoot -21.7517 -8.37418
rtoes -2.10255
lfemur -17.9759 1.35286 -16.5335
ltibia 72.9134
lfoot -4.95091 11.3038
ltoes -9.36893
222
root 9.82728 17.3693 12.4186 -4.01091 0.722929 -3.46473
lowerback 8.70909 -1.16697 4.4552
upperback 1.65382 -1.07569 1.83767
thorax -3.21282 -0.569881 -0.476967
lowerneck -15.1051 1.66494 -1.47462
upperneck 1.98163 2.68904 -3.26317
head 3.35281 1.16082 -0.617256
rclavicle 9.36773e-015 -2.78299e-015
rhumerus -33.1337 0.193513 -87.5887
rradius 32.283
rwrist -16.8339
rhand -31.5225 19.4417
rfingers 7.12502
rthumb -4.78768 -10.4842
lclavicle 9.36773e-015 -2.78299e-015
lhumerus -43.0295 2.53547 87.0305
lradius 45.0681
lwrist 25.5976
lhand -22.4032 22.816
lfingers 7.12502
lthumb 4.01944 52.7578
rfemur -6.03218 5.29491 30.2586
rtibia 34.4888
rfoot -22.0879 -8.24367
rtoes -5.25804
lfemur -19.5811 1.35019 -17.2586
ltibia 72.0792
lfoot -6.05144 10.9155
ltoes -10.4476
223
root 9.83644 17.3853 12.647 -3.85716 0.419987 -3.68171
lowerback 8.61455 -1.05638 4.91673
upperback 1.61335 -0.891652 1.82404
thorax -3.20148 -0.483362 -0.771456
lowerneck -14.8968 1.52888 -1.63596
upperneck 1.9617 2.52055 -3.09763
head 3.29843 1.08581 -0.547635
rclavicle 1.36664e-014 5.96354e-015
rhumerus -32.2704 1.40657 -87.7734
rradius 34.2262
rwrist -18.0161
rhand -31.3385 19.6439
rfingers 7.12502
rthumb -4.60999 -10.286
lclavicle 1.36664e-014 5.96354e-015
lhumerus -43.4813 3.25889 86.5162
lradius 43.4299
lwrist 25.595
lhand -22.2909 23.3091
lfingers 7.12502
lthumb 4.12787 53.2488
rfemur -5.02286 4.80185 30.4629
rtibia 34.0412
rfoot -23.073 -7.52774
rtoes -4.59071
lfemur -21.1887 1.20699 -17.1382
ltibia 70.9919
lfoot -7.0051 10.2499
ltoes -11.6375
224
root 9.85067 17.4147 12.8928 -3.76094 0.0745646 -4.48804
lowerback 8.44547 -0.972725 6.03986
upperback 1.62352 -0.686227 2.00697
thorax -3.09636 -0.388858 -1.23476
lowerneck -14.8933 1.40753 -1.971
upperneck 1.97612 2.40172 -2.81564
head 3.29206 1.03606 -0.403418
rclavicle 2.18663e-015 -2.54444e-014
rhumerus -31.4291 2.54386 -87.8062
rradius 36.3687
rwrist -19.0402
rhand -31.5397 19.5463
rfingers 7.12502
rthumb -4.80432 -10.3793
lclavicle 2.18663e-015 -2.54444e-014
lhumerus -44.048 3.7743 86.1883
lradius 41.9717
lwrist 26.0522
lhand -22.5439 23.4266
lfingers 7.12502
lthumb 3.88351 53.371
rfemur -3.94263 4.91202 31.1362
rtibia 33.5385
rfoot -24.3836 -5.44125
rtoes 5.38632
lfemur -22.4797 1.00916 -16.3482
ltibia 69.551
lfoot -7.58323 9.64894
ltoes -13.0937
225
root 9.87208 17.419 13.1285 -3.64989 -0.102662 -3.95161
lowerback 8.36692 -0.866155 5.90556
upperback 1.62956 -0.572648 1.73625
thorax -3.04021 -0.33083 -1.45441
lowerneck -14.6962 1.41976 -1.95223
upperneck 1.80631 2.40199 -2.79944
head 3.19445 1.04216 -0.403084
rclavicle -1.63997e-015 -2.38542e-015
rhumerus -30.5364 3.50457 -87.8542
rradius 38.4167
rwrist -19.8276
rhand -31.8694 19.8248
rfingers 7.12502
rthumb -5.12266 -10.0933
lclavicle -1.63997e-015 -2.38542e-015
lhumerus -44.7067 4.02492 85.8153
lradius 40.6088
lwrist 26.2147
lhand -23.47 23.0538
lfingers 7.12502
lthumb 2.98918 53.0126
rfemur -3.02374 3.64449 30.2905
rtibia 32.771
rfoot -23.7376 -4.53239
rtoes 4.92307
lfemur -23.6415 0.453932 -17.2006
ltibia 67.9013
lfoot -8.39204 9.555
ltoes -13.4184
226
root 9.87758 17.4284 13.3466 -3.65232 -0.283798 -2.95358
lowerback 8.50959 -0.720941 5.05102
upperback 1.7205 -0.460269 1.41635
thorax -3.01393 -0.266759 -1.3202
lowerneck -14.4168 1.41029 -1.96446
upperneck 1.43094 2.37819 -2.92849
head 3.01163 1.03416 -0.447874
rclavicle -3.47873e-016 -1.35174e-014
rhumerus -29.4667 4.48472 -87.7407
rradius 40.3818
rwrist -20.5157
rhand -31.8646 20.5243
rfingers 7.12502
rthumb -5.11802 -9.39393
lclavicle -3.47873e-016 -1.35174e-014
lhumerus -45.1634 4.57762 85.3554
lradius 39.0851
lwrist 25.9226
lhand -24.1019 21.7662
lfingers 7.12502
lthumb 2.37894 51.7327
rfemur -1.8125 2.92653 29.0842
rtibia 31.8611
rfoot -23.255 -3.89978
rtoes 3.06839
lfemur -24.6894 0.0399184 -18.4308
ltibia 66.0179
lfoot -9.10657 9.42199
ltoes -13.8751
227
root 9.87583 17.42 13.555 -3.56365 -0.708129 -3.58344
lowerback 8.63665 -0.649009 5.67535
upperback 1.85102 -0.29985 1.59385
thorax -2.9406 -0.187955 -1.50307
lowerneck -14.7311 1.39764 -2.12636
upperneck 1.42323 2.39387 -2.83831
head 3.06484 1.04162 -0.386335
rclavicle -7.25564e-015 -4.77083e-015
rhumerus -28.2293 5.6594 -87.5929
rradius 42.3989
rwrist -21.1969
rhand -31.7809 20.8675
rfingers 7.12502
rthumb -5.03715 -9.05266
lclavicle -7.25564e-015 -4.77083e-015
lhumerus -45.3387 5.42894 84.8021
lradius 37.5776
lwrist 25.824
lhand -23.5509 21.2216
lfingers 7.12502
lthumb 2.91108 51.1815
rfemur -0.612404 2.66757 29.8423
rtibia 30.893
rfoot -22.8319 -4.11492
rtoes -0.417062
lfemur -26.08 -0.0638244 -17.6365
ltibia 64.1196
lfoot -9.61358 9.10076
ltoes -14.4383
228
root 9.87672 17.4196 13.7692 -3.51248 -1.11959 -4.51384
lowerback 8.79602 -0.629998 6.65122
upperback 2.01196 -0.175896 1.77447
thorax -2.85362 -0.127763 -1.87448
lowerneck -15.1692 1.48635 -1.88847
upperneck 1.48411 2.49192 -2.95425
head 3.17565 1.08201 -0.45633
rclavicle -1.04362e-015 -2.42517e-014
rhumerus -27.0714 6.58429 -87.4726
rradius 44.5385
rwrist -21.6898
rhand -31.5166 21.2013
rfingers 7.12502
rthumb -4.78195 -8.72473
lclavicle -1.04362e-015 -2.42517e-014
lhumerus -45.484 6.05147 84.2627
lradius 36.1932
lwrist 26.36
lhand -23.459 21.7965
lfingers 7.12502
lthumb 2.99986 51.7552
rfemur 0.603014 2.48378 30.9106
rtibia 30.0311
rfoot -22.2281 -4.41052
rtoes -3.26622
lfemur -27.2805 -0.317288 -16.4772
ltibia 61.9865
lfoot -10.1604 8.93556
ltoes -13.9229
229
root 9.88646 17.4311 13.9952 -3.5572 -1.38883 -4.36373
lowerback 8.89427 -0.549612 6.65498
upperback 2.18493 -0.0732792 1.66843
thorax -2.71933 -0.0697913 -1.99856
lowerneck -15.076 1.47717 -1.81714
upperneck 1.08608 2.45305 -2.99942
head 3.01995 1.06973 -0.488148
rclavicle -1.86361e-015 2.50469e-014
rhumerus -25.9942 7.26416 -87.1899
rradius 46.6737
rwrist -21.8331
rhand -31.3942 21.3527
rfingers 7.12502
rthumb -4.66382 -8.57599
lclavicle -1.86361e-015 2.50469e-014
lhumerus -45.6716 6.68353 83.6983
lradius 34.7845
lwrist 26.9438
lhand -23.6873 21.975
lfingers 7.12502
lthumb 2.77936 51.9366
rfemur 1.9601 2.28709 30.6208
rtibia 29.0393
rfoot -21.9728 -3.73506
rtoes -3.31885
lfemur -27.9447 -0.702494 -16.6501
ltibia 59.5155
lfoot -10.4726 9.37065
ltoes -14.6518
